{"title":"Stare.de.Fapt.1996.TVRIP","uid":9150379,"size":594816098,"categoryP":"video","categoryS":"movies","magnet":"?xt=urn:btih:80bd6147f3aa53bb81c2e3a7c3f1180ef76d2ace&amp;dn=Stare.de.Fapt.1996.TVRIP&amp;tr=udp%3A%2F%2Ftracker.openbittorrent.com%3A80&amp;tr=udp%3A%2F%2Fopen.demonii.com%3A1337&amp;tr=udp%3A%2F%2Ftracker.coppersurfer.tk%3A6969&amp;tr=udp%3A%2F%2Fexodus.desync.com%3A6969","seeders":2,"leechers":0,"uploader":null,"files":-1,"time":1383681691,"description":"Rezumat:\n========\n21 decembrie 1989. Au loc proteste de strada In Bucuresti, impotriva regimului Ceausescu.  La lasarea intunericului , autoritatile trec la represalii utilizand armamentul din dotare impotriva unor oameni care demonstrau pasnic.  O tanara  asistenta se trezeste in miez de noapte la usa cu un adolescent ranit. Impreuna cu iubitul ei, medic, il duc la spitalul unde lucreaza. Ii dau ingrijirile necesare. Tanarul este in afara oricarui pericol. Dimineata asistenta-l descopera pe tanar la morga spitalului, impuscat in cap. Asistenta si prietenul ei sunt presati de Securitate sa treaca afacerea sub tacere. Prietenul cedeaza, asistenta nu. Relatia lor se destrama. Pentru asistenta incepe cosmarul martorului incomod.\n\nGeneral\n=======\nFormat                         : Windows Media\nFile size                      : 567 MiB\nDuration                       : 1h 32mn\nOverall bit rate mode          : Constant\nOverall bit rate               : 853 Kbps\nMaximum Overall bit rate       : 1 036 Kbps\nEncoded date                   : UTC 2013-11-03 16:11:15.138\n\nVideo\n======\nID                             : 2\nFormat                         : VC-1\nFormat profile                 : Main\nCodec ID                       : WMV3\nCodec ID/Info                  : Windows Media Video 9\nCodec ID/Hint                  : WMV3\nDuration                       : 1h 32mn\nBit rate mode                  : Constant\nBit rate                       : 960 Kbps\nWidth                          : 640 pixels\nHeight                         : 480 pixels\nDisplay aspect ratio           : 4:3\nFrame rate                     : 12.500 fps\nNominal frame rate             : 25.000 fps\nColor space                    : YUV\nChroma subsampling             : 4:2:0\nBit depth                      : 8 bits\nScan type                      : Progressive\nCompression mode               : Lossy\nBits/(Pixel*Frame)             : 0.250\nStream size                    : 638 MiB\nLanguage                       : Romanian\n\nAudio\n=====\nID                             : 1\nFormat                         : WMA\nFormat version                 : Version 2\nCodec ID                       : 161\nCodec ID/Info                  : Windows Media Audio\nDuration                       : 1h 32mn\nBit rate mode                  : Constant\nBit rate                       : 64.0 Kbps\nChannel count                  : 2 channels\nSampling rate                  : 44.1 KHz\nBit depth                      : 16 bits\nStream size                    : 42.6 MiB (8%)\nLanguage                       : Romanian\n\n","torrent":{"xt":"urn:btih:80bd6147f3aa53bb81c2e3a7c3f1180ef76d2ace","amp;dn":"Stare.de.Fapt.1996.TVRIP","amp;tr":["udp%3A%2F%2Ftracker.openbittorrent.com%3A80","udp%3A%2F%2Fopen.demonii.com%3A1337","udp%3A%2F%2Ftracker.coppersurfer.tk%3A6969","udp%3A%2F%2Fexodus.desync.com%3A6969"],"infoHash":"80bd6147f3aa53bb81c2e3a7c3f1180ef76d2ace","infoHashBuffer":{"type":"Buffer","data":[128,189,97,71,243,170,83,187,129,194,227,167,195,241,24,14,247,109,42,206]},"announce":[],"urlList":[]}}